<?xml version="1.0" encoding="UTF-8"?>
<svg version="1.1" xmlns="http://www.w3.org/2000/svg" width="183" height="42">
<path d="M0 0 C4.02629957 2.08771089 6.42943795 3.74011936 8 8 C8.30078125 11.4609375 8.30078125 11.4609375 8.3125 15.375 C8.32925781 16.66148438 8.34601562 17.94796875 8.36328125 19.2734375 C7.88967869 24.13168315 6.19889763 27.3399879 3.375 31.25 C-1.09739016 34.54544538 -6.12188049 35.19769679 -11.5625 34.625 C-12.366875 34.41875 -13.17125 34.2125 -14 34 C-14 32.02 -14 30.04 -14 28 C-13.39671875 27.96261719 -12.7934375 27.92523437 -12.171875 27.88671875 C-5.9597694 27.48932083 -5.9597694 27.48932083 -1 24 C-1 23.34 -1 22.68 -1 22 C-1.66386719 22.05800781 -2.32773437 22.11601562 -3.01171875 22.17578125 C-7.4935245 22.40477862 -10.20555753 22.47666548 -14.125 20.125 C-16.72871468 15.78547553 -16.76484262 11.95134962 -16 7 C-14.7952167 3.93080092 -14.1963149 3.1308766 -11.375 1.25 C-7.37588951 -0.23115203 -4.20859502 -0.76291264 0 0 Z M-8 8 C-8.04092937 10.33297433 -8.04241723 12.66705225 -8 15 C-5.09926819 15.67801034 -5.09926819 15.67801034 -2 16 C0.2491908 14.17296773 0.2491908 14.17296773 0.25 11.5 C0.2491908 8.82703227 0.2491908 8.82703227 -2 7 C-5.29009793 6.55239094 -5.29009793 6.55239094 -8 8 Z " fill="#FFFFFF" transform="translate(46,4)"/>
<path d="M0 0 C2.521619 2.21596821 3.31747263 3.53437957 4.0625 6.8125 C4.17736111 12.90013885 1.82992071 15.78332904 -2.1484375 20.015625 C-3.74260976 21.61675871 -5.33984322 23.21484322 -6.9375 24.8125 C-2.9775 25.1425 0.9825 25.4725 5.0625 25.8125 C5.0625 28.1225 5.0625 30.4325 5.0625 32.8125 C-3.1875 32.8125 -11.4375 32.8125 -19.9375 32.8125 C-19.9375 26.8125 -19.9375 26.8125 -18.66821289 24.90966797 C-18.0880542 24.38002441 -17.50789551 23.85038086 -16.91015625 23.3046875 C-16.28302734 22.71042969 -15.65589844 22.11617187 -15.00976562 21.50390625 C-14.34654297 20.90449219 -13.68332031 20.30507813 -13 19.6875 C-11.69264636 18.48366116 -10.39157163 17.2729586 -9.09765625 16.0546875 C-8.51636963 15.5272998 -7.93508301 14.99991211 -7.33618164 14.45654297 C-5.72515734 12.5629075 -5.24391462 11.26693411 -4.9375 8.8125 C-5.2675 8.1525 -5.5975 7.4925 -5.9375 6.8125 C-11.48803286 7.55609673 -11.48803286 7.55609673 -16.9375 8.8125 C-19.9375 5.0625 -19.9375 5.0625 -19.9375 2.8125 C-13.21181162 -1.10062778 -7.50068922 -3.03219351 0 0 Z " fill="#FFFFFF" transform="translate(76.9375,5.1875)"/>
<path d="M0 0 C3.1875 -0.4375 3.1875 -0.4375 7 0 C9.11158381 2.08545034 10.56739143 4.41206193 12 7 C12.36351562 6.4946875 12.72703125 5.989375 13.1015625 5.46875 C17.25900515 0.09605489 17.25900515 0.09605489 21.375 -0.4375 C22.24125 -0.293125 23.1075 -0.14875 24 0 C23.55530671 5.03985731 21.28656638 7.37634988 18 11 C19.03999224 14.0333107 20.0596298 16.07190652 22.125 18.5625 C24 21 24 21 24 25 C21.3125 25.4375 21.3125 25.4375 18 25 C15.95224699 22.88875077 14.46519774 20.54140493 13 18 C12.21625 18.78375 11.4325 19.5675 10.625 20.375 C6 25 6 25 3.375 25.125 C2.59125 25.08375 1.8075 25.0425 1 25 C1 20.61793033 1.56771975 19.69573036 4 16.25 C4.556875 15.45078125 5.11375 14.6515625 5.6875 13.828125 C6.120625 13.22484375 6.55375 12.6215625 7 12 C6.4946875 11.30132812 5.989375 10.60265625 5.46875 9.8828125 C4.8190625 8.97273438 4.169375 8.06265625 3.5 7.125 C2.8503125 6.22007813 2.200625 5.31515625 1.53125 4.3828125 C0 2 0 2 0 0 Z " fill="#FFFFFF" transform="translate(130,14)"/>
<path d="M0 0 C0 1.98 0 3.96 0 6 C-1.98 6.99 -1.98 6.99 -4 8 C-4 8.66 -4 9.32 -4 10 C-1.525 10.99 -1.525 10.99 1 12 C0.67 13.65 0.34 15.3 0 17 C-1.65 17 -3.3 17 -5 17 C-5 23.27 -5 29.54 -5 36 C-6.98 36 -8.96 36 -11 36 C-12 35 -12 35 -12.11352539 33.23413086 C-12.10567017 32.11083374 -12.10567017 32.11083374 -12.09765625 30.96484375 C-12.09282227 29.75151367 -12.09282227 29.75151367 -12.08789062 28.51367188 C-12.07951172 27.66353516 -12.07113281 26.81339844 -12.0625 25.9375 C-12.05798828 25.08349609 -12.05347656 24.22949219 -12.04882812 23.34960938 C-12.03700373 21.23304337 -12.01906769 19.11651315 -12 17 C-12.99 17 -13.98 17 -15 17 C-15 15.02 -15 13.04 -15 11 C-14.01 11 -13.02 11 -12 11 C-11.938125 9.741875 -11.87625 8.48375 -11.8125 7.1875 C-11.40237791 3.96918084 -11.29910883 3.27347093 -8.8125 1 C-5.69362618 -0.10893291 -3.28637136 -0.22928172 0 0 Z " fill="#FFFFFF" transform="translate(98,3)"/>
<path d="M0 0 C3 0.125 3 0.125 4 1.125 C4.10085654 3.54993373 4.13972332 5.94575661 4.1328125 8.37109375 C4.13376923 9.09740494 4.13472595 9.82371613 4.13571167 10.57203674 C4.13639344 12.1112578 4.13453937 13.65048171 4.13037109 15.18969727 C4.12503043 17.54905657 4.13031215 19.90822484 4.13671875 22.26757812 C4.13605782 23.76041709 4.13477634 25.25325593 4.1328125 26.74609375 C4.13483673 27.45446884 4.13686096 28.16284393 4.13894653 28.89268494 C4.11495714 33.89508571 4.11495714 33.89508571 3 36.125 C1.00045254 36.16754356 -1.00041636 36.16580783 -3 36.125 C-4.7329298 34.3920702 -4.12820046 32.16285664 -4.13894653 29.85351562 C-4.1369223 29.11810547 -4.13489807 28.38269531 -4.1328125 27.625 C-4.13376923 26.87412109 -4.13472595 26.12324219 -4.13571167 25.34960938 C-4.13639338 23.75911373 -4.13453972 22.16861533 -4.13037109 20.578125 C-4.12502267 18.13535345 -4.13031634 15.69276579 -4.13671875 13.25 C-4.13605797 11.70833293 -4.1347768 10.16666597 -4.1328125 8.625 C-4.13483673 7.88958984 -4.13686096 7.15417969 -4.13894653 6.39648438 C-4.10997861 0.17124911 -4.10997861 0.17124911 0 0 Z " fill="#FFFFFF" transform="translate(106,2.875)"/>
<path d="M0 0 C2.31 0 4.62 0 7 0 C7.02886984 3.97915159 7.04675406 7.95827653 7.0625 11.9375 C7.07087891 13.07380859 7.07925781 14.21011719 7.08789062 15.38085938 C7.09111328 16.46044922 7.09433594 17.54003906 7.09765625 18.65234375 C7.10289307 19.65257568 7.10812988 20.65280762 7.11352539 21.68334961 C7 24 7 24 6 25 C3.5 25.125 3.5 25.125 1 25 C0 24 0 24 -0.11352539 21.68334961 C-0.10828857 20.68311768 -0.10305176 19.68288574 -0.09765625 18.65234375 C-0.09443359 17.57275391 -0.09121094 16.49316406 -0.08789062 15.38085938 C-0.07951172 14.24455078 -0.07113281 13.10824219 -0.0625 11.9375 C-0.05798828 10.79732422 -0.05347656 9.65714844 -0.04882812 8.48242188 C-0.03699747 5.65489649 -0.0205141 2.8274736 0 0 Z " fill="#FFFFFF" transform="translate(117,14)"/>
<path d="M0 0 C2.5625 0.1875 2.5625 0.1875 4.5625 2.1875 C4.00694444 6.74305556 4.00694444 6.74305556 2.5625 8.1875 C0.125 8.375 0.125 8.375 -2.4375 8.1875 C-3.0975 7.5275 -3.7575 6.8675 -4.4375 6.1875 C-3.71780303 0.28598485 -3.71780303 0.28598485 0 0 Z " fill="#FFFFFF" transform="translate(120.4375,2.8125)"/>
</svg>
